<?xml version="1.0"?><svg width="990" height="990" xmlns="http://www.w3.org/2000/svg" xmlns:xlink="http://www.w3.org/1999/xlink">
 <title>Beachball, primary</title>
 <defs>
  <pattern id="pattern11050" patternTransform="translate(908.49326,821.85024)" height="21.84928" width="27.38941" patternUnits="userSpaceOnUse">
   <path d="m11.00694,11.76672c3.53863,-1.007339 3.370131,-1.51101 6.740251,0.167891c3.370129,1.6789 2.022079,2.51836 0.674019,4.029369c-1.348049,1.511011 -5.897709,4.868811 -7.582769,3.02202c-1.68506,-1.84679 -3.70714,-1.511009 -2.86461,-3.3578c0.84254,-1.846789 3.03311,-3.86148 3.03311,-3.86148z" id="path11012" fill="#8b4c33"/>
   <path d="m19.937771,4.88323c-2.6961,1.6789 -4.381161,2.18258 -3.70713,3.69358c0.674019,1.51102 2.190569,3.02203 3.370119,3.02203c1.17955,0 3.70714,2.01467 4.886681,0.503671c1.179541,-1.511021 3.201611,-2.18257 2.864599,-4.19726c-0.337009,-2.01468 0,-2.51835 -2.696089,-3.3578c-2.6961,-0.83945 -4.71818,0.33578 -4.71818,0.33578z" id="path11014" fill="#8b4c33"/>
   <path d="m21.117319,14.95664c-1.685059,2.18257 -3.370129,2.18257 -3.201618,3.52569c0.168509,1.34313 1.179539,3.52569 3.370119,3.357809c2.19059,-0.1679 4.71818,-0.50367 4.886681,-2.518349c0.168499,-2.01469 1.853569,-4.197261 0,-4.86882c-1.853571,-0.67156 -5.055182,0.50367 -5.055182,0.50367z" id="path11016" fill="#8b4c33"/>
   <path d="m8.81637,8.40892c3.0331,0.83945 4.04414,0.33578 4.71816,-0.167891c0.67403,-0.50367 1.17955,-1.17522 2.359091,-2.68624c1.17954,-1.51101 0.674029,-3.18991 -0.16851,-4.36515c-0.84252,-1.17523 -0.84252,-1.17523 -2.69609,-0.50367c-1.85357,0.67156 -3.20162,1.00734 -3.20162,3.02203c0,2.01468 -1.01103,4.70092 -1.01103,4.70092z" id="path11018" fill="#8b4c33"/>
   <path d="m7.80533,3.20433c-0.33701,2.35046 0.842531,3.69358 -1.01104,5.37248c-1.85356,1.6789 -4.38116,5.37248 -5.05518,2.51835c-0.67403,-2.85413 -2.86461,-4.197249 -1.01104,-6.8835c1.85356,-2.68624 2.19058,-4.86881 4.21266,-4.02936c2.02207,0.83945 2.8646,3.02203 2.8646,3.02203z" id="path11020" fill="#8b4c33"/>
   <path d="m7.46832,10.59149c1.85356,-0.50366 2.52759,-1.34312 1.01103,2.18257c-1.51655,3.525701 -3.37012,7.722949 -4.38115,7.219279c-1.01105,-0.50367 -2.5276,-3.861469 -2.19059,-5.204599c0.33701,-1.34311 2.35909,-1.17523 3.20162,-2.350451c0.84253,-1.17524 2.35909,-1.8468 2.35909,-1.8468z" id="path11022" fill="#8b4c33"/>
  </pattern>
  <radialGradient xlink:href="#linearGradient5602" id="radialGradient5608" cx="1036" cy="130" fx="1036" fy="130" r="19" gradientUnits="userSpaceOnUse"/>
  <linearGradient id="linearGradient5602">
   <stop offset="0" id="stop5604" stop-color="#ffffff"/>
   <stop offset="1" id="stop5606" stop-opacity="0" stop-color="#ffffff"/>
  </linearGradient>
 </defs>
 <metadata id="metadata10023">image/svg+xmlBeachball2012-05-12Jason M. Simanekbeach ball beachball summer sports</metadata>
 <g>
  <title>Layer 1</title>
  <path d="m393.928741,902.306641a103.522377,103.522377 0 1 1207.044769,-869.35437a103.522377,103.522377 0 1 1-207.044769,869.35437z" id="path5458" fill="none"/>
  <path id="path5460" d="m780.418091,365.732391c-55.960083,-133.388611 -158.360962,-254.497513 -296.559143,-305.936031c-31.81488,-8.849331 -65.878967,-27.061699 -98.964081,-15.13475c-148.055038,37.86475 -271.1446,158.876034 -310.166748,306.822308c-19.13213,69.469269 -20.996078,143.654938 -4.639328,213.859222c97.479736,-104.384705 231.680374,-168.670044 369.359024,-200.961182c102.600891,-19.692993 210.341858,-3.961853 306.381409,35.650757c11.529785,-11.433289 23.059143,-22.86795 34.588867,-34.300293l0,-0.000031z" fill="#ffff00"/>
  <path id="path5462" d="m880.722473,678.523987c13.652954,-129.566345 -63.095154,-257.164917 -63.095154,-257.164917l-58.273071,20.782135c0,0 -14.529724,140.844574 -275.429352,277.094879c-114.355408,59.720154 -193.686249,84.888062 -267.477356,83.579468c50.450134,42.363953 111.22113,73.994995 179.670685,90.296936c195.787659,46.628601 392.169434,-46.352173 484.604309,-214.588501l-0.000061,0z" fill="#ff0000"/>
  <path id="path5464" d="m761.145935,456.029602l-6.533752,-62.635895c0,0 -166.954895,-138.75885 -543.335999,-28.32782c-38.600067,11.325592 -102.493668,39.720245 -150.424374,67.792969c-13.290791,164.12265 67.664745,320.1987 204.123775,405.398224c153.453766,-21.771973 409.19104,-119.318298 496.17041,-382.227478l-0.000061,0z" fill="#007fff"/>
  <path id="path5466" d="m934.81366,476.797119c3.423584,-155.991577 -77.403809,-301.662567 -208.696228,-382.12796c62.625916,115.210556 66.055542,229.864594 54.038391,286.032532l28.707764,33.135529l125.950073,62.959869l0,0.000031z" fill="#ff7f00"/>
  <path id="path5468" d="m922.918701,568.977478c8.851563,-37.118042 12.821838,-75.39505 11.770447,-113.539459c-30.679749,-28.174652 -72.167114,-42.561981 -113.28595,-45.401062c-5.926331,9.616791 -11.852295,19.233978 -17.778198,28.850739c30.600464,56.54538 50.593628,119.758606 52.968079,184.262573c1.482971,39.929077 -5.977295,80.148193 -22.493225,116.583008c-1.841003,5.217712 -9.299805,20.350891 -0.523682,7.825256c43.164673,-51.49707 73.836121,-113.206482 89.342529,-178.581055z" fill="#00ff00"/>
  <path id="path5470" d="m786.299011,350.22699c0,0 55.872009,-123.968994 -45.450989,-242.738983c-0.038025,-0.022995 -0.087036,-0.003998 -0.113037,-0.025993c-43.289001,-29.852005 -92.740967,-52.385204 -146.964966,-65.299015c-88.659027,-21.114899 -177.429016,-13.598898 -256.627014,16.564903l1.09198,0.502499c160.212006,-3.089901 340.366028,135.147621 403.916992,272.285591l44.147034,18.710999l0,0l0,0z" fill="#7f007f"/>
  <path transform="rotate(104.28781127929688 462.25622558593733,496.8970031738282) " id="path5558" d="m587.657227,496.897003aundefined,undefined NaN 0 0-250.802002,0aundefined,undefined NaN 0 0250.802002,0z" fill="url(#radialGradient5608)"/>
  <path transform="rotate(-21.612247467041016 878.6221923828125,370.48071289062494) " id="path5472" fill="#ffffff"/>
  <path id="svg_1" d="m599.845032,374.112488c0,-69.213165 72.112488,-125.275848 161.140198,-125.275848c89.027649,0 161.140015,56.062683 161.140015,125.275848c0,69.213104 -72.112366,125.275787 -161.140015,125.275787c-89.02771,0 -161.140198,-56.062683 -161.140198,-125.275787z" transform="rotate(-111.47918701171875 760.9851074218749,374.1124572753906) " stroke-linecap="null" stroke-linejoin="null" stroke-dasharray="null" stroke-width="null" fill="#ffffff"/>
  <ellipse ry="1" id="svg_3" cy="324" cx="761" stroke-linecap="null" stroke-linejoin="null" stroke-dasharray="null" stroke-width="null" fill="#ffff00"/>
 </g>
</svg>